<svg width="106" height="85" viewBox="0 0 106 85" fill="none" xmlns="http://www.w3.org/2000/svg">
<path d="M23.0921 3.01744L14.5514 31.5291C14.3925 32.0595 14.1252 32.5511 13.7665 32.9729L1.77305 47.0732C0.272816 48.8369 0.578976 51.5021 2.44007 52.8798L11.4696 59.5638C13.0922 60.7648 13.5655 62.9867 12.5733 64.7448L9.02379 71.034C7.5189 73.7005 9.44548 77 12.5073 77H32.633C33.2781 77 33.9136 77.156 34.4854 77.4548L47.4009 84.2034C48.3742 84.712 49.5138 84.798 50.5524 84.4414L71.5926 77.2168C72.0107 77.0733 72.4496 77 72.8916 77H88.0376C89.3854 77 90.6426 76.3213 91.382 75.1944L104.852 54.6659C105.28 54.014 105.508 53.2512 105.508 52.4715V34.2804C105.508 33.0513 104.943 31.8904 103.975 31.1322L90.1972 20.3333L73.2604 8.39706C72.586 7.92178 71.7812 7.66667 70.9561 7.66667H49.6087C49.1565 7.66667 48.7076 7.58999 48.281 7.43989L28.2516 0.392037C26.0977 -0.36588 23.7474 0.830076 23.0921 3.01744Z" fill="#8C8A8A"/>
</svg>
