<svg width="73" height="89" viewBox="0 0 73 89" fill="none" xmlns="http://www.w3.org/2000/svg">
<path d="M27.7341 74.317C28.0151 67.3184 22.5961 61.4208 15.6304 61.1443C8.66464 60.8679 2.78996 66.3174 2.5089 73.316C2.22784 80.3147 7.64685 86.2123 14.6126 86.4887C21.5783 86.7652 27.453 81.3157 27.7341 74.317Z" stroke="black" stroke-width="3" stroke-linecap="round" stroke-linejoin="round"/>
<path d="M45.2718 74.3276C44.9937 67.3288 50.415 61.4287 57.3807 61.1493C64.3463 60.8699 70.2184 66.317 70.4965 73.3158C70.7746 80.3146 65.3532 86.2147 58.3876 86.4941C51.422 86.7735 45.5498 81.3264 45.2718 74.3276Z" stroke="black" stroke-width="3" stroke-linecap="round" stroke-linejoin="round"/>
<path d="M21.4163 61.9968L61.1065 2.49476" stroke="black" stroke-width="3" stroke-linecap="round" stroke-linejoin="round"/>
<path d="M51.5836 61.9968L11.8935 2.49476" stroke="black" stroke-width="3" stroke-linecap="round" stroke-linejoin="round"/>
</svg>
